<svg width="219" height="219" viewBox="0 0 219 219" fill="none" xmlns="http://www.w3.org/2000/svg">

<g id="Frame 1000004064">
<g id="Frame 1000004067">
<g id="Brand Icons">
<g id="Frame 8333">
<g id="Frame 1000004063">
<g id="Icon container">
<g id="Frame 1000004062">
<path id="Line 2" d="M155.896 26.8721C155.896 26.4462 155.551 26.1009 155.125 26.1009C154.699 26.1009 154.354 26.4462 154.354 26.8721L155.125 26.8721L155.896 26.8721ZM155.125 164.25L159.577 156.539L150.673 156.539L155.125 164.25ZM155.125 26.8721L154.354 26.8721L154.354 157.31L155.125 157.31L155.896 157.31L155.896 26.8721L155.125 26.8721Z" fill="url(#paint0_linear_1025_31781)"/>
<path id="Line 1" d="M110.271 26.8721C110.271 26.4462 109.926 26.1009 109.5 26.1009C109.074 26.1009 108.729 26.4462 108.729 26.8721L109.5 26.8721L110.271 26.8721ZM109.5 164.25L113.952 156.539L105.048 156.539L109.5 164.25ZM109.5 26.8721L108.729 26.8721L108.729 157.31L109.5 157.31L110.271 157.31L110.271 26.8721L109.5 26.8721Z" fill="url(#paint1_linear_1025_31781)"/>
<path id="Line 3" d="M64.6461 24.0685C64.6461 23.6426 64.3009 23.2974 63.875 23.2974C63.4491 23.2974 63.1039 23.6426 63.1039 24.0685L63.875 24.0685L64.6461 24.0685ZM63.875 164.25L68.3271 156.539L59.4229 156.539L63.875 164.25ZM63.875 24.0685L63.1039 24.0685L63.1039 157.31L63.875 157.31L64.6461 157.31L64.6461 24.0685L63.875 24.0685Z" fill="url(#paint2_linear_1025_31781)"/>
</g>
<g id="Group 8333">
<path id="Vector" d="M38.7968 73.2375C38.7968 108.851 68.9223 137.721 106.084 137.721C143.246 137.721 173.371 108.851 173.371 73.2375C173.371 37.6243 143.246 8.75403 106.084 8.75403C68.9223 8.75402 38.7968 37.6243 38.7968 73.2375Z" fill="white" stroke="#46398C" stroke-width="2"/>
<g id="Group 8334">
<path id="Vector_2" d="M67.0527 42.4038H144.252L111.642 79.0067V113.613L90.3455 124.261V79.0067L67.0527 42.4038Z" fill="#E2DEF3" stroke="#46398C" stroke-width="2" stroke-linecap="round" stroke-linejoin="round"/>
<g id="Group 8332">
<rect id="Rectangle 34624174" x="142.209" y="34.4598" width="11.0223" height="107.512" rx="5.51115" transform="rotate(45 142.209 34.4598)" fill="white" stroke="white" stroke-width="3.2743"/>
<rect id="Rectangle 34624173" x="142.324" y="30.6816" width="11.8229" height="112.808" rx="5.91144" transform="rotate(45 142.324 30.6816)" fill="#DEF853" stroke="#46398C" stroke-width="2"/>
</g>
</g>
</g>
</g>
<g id="Frame 8334">
<g id="Group 8317">
<path id="Vector_3" d="M64.2475 185.444C68.8402 185.444 72.5634 181.721 72.5634 177.128C72.5634 172.536 68.8402 168.812 64.2475 168.812C59.6548 168.812 55.9316 172.536 55.9316 177.128C55.9316 181.721 59.6548 185.444 64.2475 185.444Z" fill="#DAD6F0" stroke="#2D2578" stroke-width="1.58397" stroke-linecap="round" stroke-linejoin="round"/>
<path id="Vector_4" d="M50.1875 207.224V200.69C50.1875 192.374 56.5234 186.434 64.2453 186.434C71.9671 186.434 78.303 192.374 78.303 200.69V207.224H50.1875Z" fill="#DAD6F0" stroke="#2D2578" stroke-width="1.58397" stroke-linecap="round" stroke-linejoin="round"/>
</g>
<g id="Group 8323">
<path id="Vector_5" d="M110.213 185.84C114.915 185.84 118.727 182.028 118.727 177.326C118.727 172.624 114.915 168.812 110.213 168.812C105.511 168.812 101.699 172.624 101.699 177.326C101.699 182.028 105.511 185.84 110.213 185.84Z" fill="#DAD6F0" stroke="#2D2578" stroke-width="1.58397" stroke-linecap="round" stroke-linejoin="round"/>
<path id="Vector_6" d="M96.5527 207.422V200.888C96.5527 192.374 102.493 186.632 110.215 186.632C117.936 186.632 123.876 192.374 123.876 200.888V207.422H96.5527Z" fill="#DAD6F0" stroke="#2D2578" stroke-width="1.58397" stroke-linecap="round" stroke-linejoin="round"/>
</g>
<g id="Group 8319">
<path id="Vector_7" d="M155.787 185.84C160.489 185.84 164.301 182.028 164.301 177.326C164.301 172.624 160.489 168.812 155.787 168.812C151.085 168.812 147.273 172.624 147.273 177.326C147.273 182.028 151.085 185.84 155.787 185.84Z" fill="#DAD6F0" stroke="#2D2578" stroke-width="1.58397" stroke-linecap="round" stroke-linejoin="round"/>
<path id="Vector_8" d="M142.127 207.422V200.888C142.127 192.374 148.067 186.632 155.789 186.632C163.511 186.632 169.45 192.374 169.45 200.888V207.422H142.127Z" fill="#DAD6F0" stroke="#2D2578" stroke-width="1.58397" stroke-linecap="round" stroke-linejoin="round"/>
</g>
</g>
</g>
</g>
</g>
</g>
</g>
<defs>
<linearGradient id="paint0_linear_1025_31781" x1="154.625" y1="26.8721" x2="154.625" y2="164.25" gradientUnits="userSpaceOnUse">
<stop offset="0.663462" stop-color="#E2DEF3" stop-opacity="0"/>
<stop offset="1" stop-color="#2D2578"/>
</linearGradient>
<linearGradient id="paint1_linear_1025_31781" x1="109" y1="26.8721" x2="109" y2="164.25" gradientUnits="userSpaceOnUse">
<stop offset="0.663462" stop-color="#E2DEF3" stop-opacity="0"/>
<stop offset="1" stop-color="#2D2578"/>
</linearGradient>
<linearGradient id="paint2_linear_1025_31781" x1="63.375" y1="24.0685" x2="63.375" y2="164.25" gradientUnits="userSpaceOnUse">
<stop offset="0.644231" stop-color="#E2DEF3" stop-opacity="0"/>
<stop offset="1" stop-color="#2D2578"/>
</linearGradient>
</defs>
</svg>
