<svg width="191" height="191" viewBox="0 0 191 191" fill="none" xmlns="http://www.w3.org/2000/svg">

<g id="Frame 1000004064">
<g id="Frame 1000004066">
<g id="Brand Icons">
<g id="Offer Decisioning">
<g id="Offer Decisioning_2">
<g id="Main Profile Container">
<g id="Group">
<g id="Group_2">
<g id="Group_3">
<path id="Vector" d="M90.5831 101.464C67.2165 101.464 48.2734 120.403 48.2734 143.77C48.2734 167.137 67.2165 186.076 90.5831 186.076C113.95 186.076 132.893 167.137 132.893 143.77C132.893 120.403 113.95 101.464 90.5831 101.464ZM61.9325 170.818C65.8155 158.114 77.4341 149.473 90.3851 149.442C103.427 149.416 115.077 157.718 119.196 170.719C103.774 187.264 77.476 187.104 61.9325 170.818ZM77.8605 133.758C77.8605 126.742 83.5442 121.058 90.5602 121.058C97.5763 121.058 103.264 126.742 103.264 133.758C103.264 140.774 97.5763 146.458 90.5602 146.458C83.5442 146.458 77.8605 140.774 77.8605 133.758ZM98.0979 147.432C104.193 143.865 107.501 137.146 105.86 130.278C104.235 123.464 98.5433 118.93 92.2238 118.298C85.3791 117.617 79.1168 121.268 76.2426 127.572C72.9382 134.82 75.7553 143.123 82.9693 147.409C72.1083 150.341 63.8702 157.802 59.7664 168.347C45.9398 151.483 48.7379 126.666 65.8802 113.208C76.7755 104.654 91.1579 102.016 104.935 107.239C116.28 111.537 126.033 121.713 129.105 134.592C131.941 146.465 129.181 158.651 121.327 168.34C117.425 157.715 108.875 150.181 98.0979 147.432Z" fill="#241C8C"/>
<path id="Vector_2" d="M66.0039 113.357C76.8486 104.842 91.1615 102.217 104.874 107.415C116.163 111.692 125.869 121.821 128.926 134.634C131.723 146.343 129.05 158.356 121.394 167.956C117.471 157.58 109.11 150.184 98.584 147.36C104.307 143.817 107.473 137.466 106.192 130.884L106.052 130.233C104.407 123.336 98.6456 118.747 92.249 118.108C85.3218 117.418 78.9826 121.114 76.0752 127.491C72.7852 134.709 75.4916 142.949 82.5059 147.343C71.8982 150.338 63.8285 157.668 59.7178 167.972C46.1916 151.196 49.03 126.682 66.0039 113.357Z" fill="white" stroke="#46398C" stroke-width="0.380688"/>
<path id="Vector_3" d="M90.3867 149.632C103.31 149.606 114.855 157.809 118.979 170.668C103.649 187.022 77.6021 186.867 62.1484 170.765C66.0401 158.199 77.5574 149.662 90.3867 149.632Z" fill="#D9D6FE" stroke="#46398C" stroke-width="0.380688"/>
<path id="Vector_4" d="M90.5615 121.246C97.4723 121.246 103.074 126.845 103.074 133.756C103.074 140.666 97.4722 146.264 90.5615 146.265C83.6507 146.265 78.052 140.667 78.0518 133.756C78.0518 126.845 83.6506 121.246 90.5615 121.246Z" fill="#D9D6FE" stroke="#46398C" stroke-width="0.380688"/>
</g>
</g>
</g>
</g>
<g id="Notification Icon">
<g id="Additional Badge">
<g id="Outer Additional Badge">
<rect id="Outer Additional Badge Background" x="1.09206" y="73.5957" width="59.6291" height="30.0663" rx="5.53302" fill="#D9D6FE" stroke="#46398C" stroke-width="2.18413"/>
<g id="Inner Additional Badge">
<rect id="Additional Badge Background" x="6.46706" y="78.9701" width="16.6286" height="19.3161" rx="2.22048" fill="white" stroke="#241C8C" stroke-width="2.18413"/>
<g id="Additional Badge Text Container">
<rect id="Additional Main Highlight" x="27.7012" y="83.1432" width="18.219" height="1.65627" fill="white" stroke="#46398C" stroke-width="1.65627"/>
<rect id="Additional Badge Highlight" x="27.7012" y="89.7698" width="11.5939" height="1.65627" fill="white" stroke="#46398C" stroke-width="1.65627"/>
</g>
</g>
</g>
</g>
<g id="Notification Badge">
<g id="Badge Container">
<rect id="Outer Badge Background" x="130.282" y="73.595" width="59.6291" height="30.0663" rx="5.53302" fill="#D9D6FE" stroke="#46398C" stroke-width="2.18413"/>
<g id="Inner Badge">
<rect id="Badge Background" x="135.658" y="78.9694" width="16.6286" height="19.3161" rx="2.22048" fill="white" stroke="#241C8C" stroke-width="2.18413"/>
<g id="Badge Text Container">
<rect id="Main Highlight" x="156.896" y="83.1428" width="18.219" height="1.65627" fill="white" stroke="#46398C" stroke-width="1.65627"/>
<rect id="Badge Highlight" x="156.896" y="89.7693" width="11.5939" height="1.65627" fill="white" stroke="#46398C" stroke-width="1.65627"/>
</g>
</g>
</g>
</g>
<g id="Icon Background">
<g id="Inner Container">
<rect id="Container Background" x="34.9078" y="40.3041" width="107.839" height="54.7417" rx="8.06272" fill="white" stroke="#46398C" stroke-width="3.18271"/>
<g id="Highlight Container">
<rect id="Bar Background" x="44.566" y="49.9577" width="30.6065" height="35.4336" rx="3.23568" fill="#D9D6FE" stroke="#241C8C" stroke-width="3.18271"/>
<g id="Text Group">
<rect id="Main Bar" x="82.7966" y="59.2276" width="45.8569" height="2.41352" fill="white" stroke="#46398C" stroke-width="2.41352"/>
<rect id="Highlight Bar" x="82.7966" y="68.8817" width="31.3757" height="2.41352" fill="white" stroke="#46398C" stroke-width="2.41352"/>
</g>
</g>
</g>
<g id="Highlight">
<path id="Vector_5" d="M142.446 57.9248C157.081 57.9248 168.946 46.0602 168.946 31.4245C168.946 16.7888 157.081 4.92419 142.446 4.92419C127.81 4.92419 115.945 16.7888 115.945 31.4245C115.945 46.0602 127.81 57.9248 142.446 57.9248Z" fill="#CBEF17" stroke="#241C8C" stroke-width="3.53338"/>
<path id="Vector_6" d="M142.445 15.8783C146.798 25.8283 148.042 27.072 157.992 31.4252C148.042 35.7783 146.798 37.022 142.445 46.972C138.092 37.022 136.848 35.7783 126.898 31.4252C136.848 27.072 138.092 25.8283 142.445 15.8783Z" fill="white" stroke="#241C8C" stroke-width="2.8267" stroke-linejoin="round"/>
</g>
</g>
</g>
</g>
</g>
</g>
</g>
</g>
</svg>
